<!--?xml version="1.0" standalone="no"?-->
              <svg id="sw-js-blob-svg" viewBox="0 0 100 100" xmlns="http://www.w3.org/2000/svg" version="1.1">
                    <defs> 
                        <linearGradient id="sw-gradient" x1="0" x2="1" y1="1" y2="0">
                            <stop id="stop1" stop-color="rgba(167, 139, 251, 1)" offset="0%"></stop>
                            <stop id="stop2" stop-color="rgba(0, 3, 25, 1)" offset="100%"></stop>
                        </linearGradient>
                    </defs>
                <path fill="url(#sw-gradient)" d="M21.9,-29.5C24.8,-23.6,21,-13.3,19,-6.2C16.9,1,16.4,5.1,15.4,10.6C14.3,16.1,12.6,23,8.7,24.9C4.8,26.8,-1.4,23.7,-7.3,21.1C-13.3,18.5,-19.1,16.4,-25.8,11.6C-32.6,6.7,-40.3,-0.9,-41.5,-9.6C-42.6,-18.3,-37.2,-28.1,-29.2,-33C-21.2,-38,-10.6,-38.2,-0.5,-37.5C9.5,-36.9,19,-35.4,21.9,-29.5Z" width="100%" height="100%" transform="translate(50 50)" stroke-width="0" style="transition: all 0.3s ease 0s;" stroke="url(#sw-gradient)"></path>
              </svg>